<?xml version="1.0" encoding="UTF-8"?>
<svg version="1.1" xmlns="http://www.w3.org/2000/svg" width="400" height="400">
<path d="M0 0 C132 0 264 0 400 0 C400 132 400 264 400 400 C268 400 136 400 0 400 C0 268 0 136 0 0 Z " fill="#000000" transform="translate(0,0)"/>
<path d="M0 0 C41.25 0 82.5 0 125 0 C125 41.25 125 82.5 125 125 C83.75 125 42.5 125 0 125 C0 83.75 0 42.5 0 0 Z " fill="#FEFEFE" transform="translate(69,69)"/>
<path d="M0 0 C-0.8013111 9.18740083 -2.16635367 18.27600099 -3.5390625 27.39257812 C-7.39891315 53.67700884 -7.64256768 78.86744644 -0.64477539 104.59521484 C1.13355978 111.22777882 1.11972754 117.55171646 1.0625 124.375 C1.05798828 125.39722656 1.05347656 126.41945313 1.04882812 127.47265625 C1.037103 129.98183194 1.02069176 132.4908849 1 135 C0.67 135 0.34 135 0 135 C-0.03440186 134.35788574 -0.06880371 133.71577148 -0.10424805 133.05419922 C-0.99164891 117.55976738 -3.18034759 103.02855238 -7 88 C-7.05534912 89.21993652 -7.11069824 90.43987305 -7.16772461 91.69677734 C-7.37561558 96.26298557 -7.58707451 100.82902302 -7.79956055 105.39501953 C-7.8906894 107.36372535 -7.98087635 109.33247502 -8.07006836 111.30126953 C-8.19912494 114.14628211 -8.33167261 116.99111489 -8.46484375 119.8359375 C-8.50343002 120.70302338 -8.5420163 121.57010925 -8.58177185 122.46347046 C-8.86101541 128.33339028 -9.36183741 134.15839904 -10 140 C-10.33 140 -10.66 140 -11 140 C-11 100.73 -11 61.46 -11 21 C-52.25 21 -93.5 21 -136 21 C-136 62.25 -136 103.5 -136 146 C-98.05 146 -60.1 146 -21 146 C-21 146.33 -21 146.66 -21 147 C-25.4056348 147.82392502 -29.81240527 148.6414239 -34.22021484 149.45361328 C-35.71173306 149.72929977 -37.20295784 150.00657969 -38.69384766 150.28564453 C-53.55418867 153.0650601 -68.2025777 155.37377157 -83.375 155.25 C-84.58381836 155.24540771 -85.79263672 155.24081543 -87.03808594 155.23608398 C-102.38035347 155.08897436 -117.70291643 154.14360616 -133 153 C-133.95970703 152.93925293 -134.91941406 152.87850586 -135.90820312 152.81591797 C-138.359375 152.62109375 -138.359375 152.62109375 -142 152 C-144.25250435 148.62124348 -144.27258176 147.16053037 -144.4375 143.1875 C-144.99116614 135.73086734 -147.26609106 131.85572472 -151.9375 126.125 C-157.3039723 119.52542286 -161.70975084 112.88953122 -161 104 C-159.33113858 98.98894658 -157.06193054 94.29912347 -154.75 89.5625 C-145.10910559 69.40309639 -144.7404782 58.84554043 -150.56054688 37.08007812 C-150.87185547 35.88447266 -151.18316406 34.68886719 -151.50390625 33.45703125 C-151.79080322 32.38428955 -152.0777002 31.31154785 -152.37329102 30.20629883 C-153.94628111 22.15874179 -152.39376508 17.59701539 -148 11 C-146.1875 8.4375 -146.1875 8.4375 -144 7 C-137.19282657 6.52489979 -131.05160038 7.85490979 -124.4375 9.375 C-123.43525391 9.59671875 -122.43300781 9.8184375 -121.40039062 10.046875 C-117.27518702 10.97022538 -113.18225491 11.91105598 -109.13671875 13.140625 C-98.63995719 16.01645009 -87.50830239 13.62062955 -78.12109375 8.3984375 C-77.21488281 7.85445312 -76.30867188 7.31046875 -75.375 6.75 C-69.0881408 3.10637503 -63.41174877 3.1189751 -56.3984375 4.51953125 C-51.41193186 5.22451998 -46.46709395 5.14830674 -41.4375 5.125 C-39.82439941 5.11774902 -39.82439941 5.11774902 -38.17871094 5.11035156 C-27.03547065 5.02611177 -17.11568503 4.86500338 -6.55859375 0.83984375 C-4 0 -4 0 0 0 Z " fill="#306CA9" transform="translate(205,48)"/>
<path d="M0 0 C1.19713623 0.00012085 2.39427246 0.0002417 3.62768555 0.00036621 C4.87090576 0.00548218 6.11412598 0.01059814 7.39501953 0.01586914 C8.54881104 0.01687622 9.70260254 0.0178833 10.89135742 0.0189209 C15.18685912 0.02413902 19.48234661 0.03810027 23.77783203 0.05102539 C33.38908203 0.07165039 43.00033203 0.09227539 52.90283203 0.11352539 C52.90283203 21.56352539 52.90283203 43.01352539 52.90283203 65.11352539 C31.45283203 65.11352539 10.00283203 65.11352539 -12.09716797 65.11352539 C-12.09716797 43.99352539 -12.09716797 22.87352539 -12.09716797 1.11352539 C-7.77507227 0.39317611 -4.29222746 -0.00921079 0 0 Z " fill="#000000" transform="translate(111.09716796875,98.886474609375)"/>
<path d="M0 0 C19.8 0 39.6 0 60 0 C60 19.8 60 39.6 60 60 C40.2 60 20.4 60 0 60 C0 40.2 0 20.4 0 0 Z " fill="#FFFFFF" transform="translate(269,270)"/>
<path d="M0 0 C19.8 0 39.6 0 60 0 C60 19.8 60 39.6 60 60 C40.2 60 20.4 60 0 60 C0 40.2 0 20.4 0 0 Z " fill="#FFFFFF" transform="translate(133,270)"/>
<path d="M0 0 C19.8 0 39.6 0 60 0 C60 19.8 60 39.6 60 60 C40.2 60 20.4 60 0 60 C0 40.2 0 20.4 0 0 Z " fill="#FFFFFF" transform="translate(204,204)"/>
<path d="M0 0 C19.8 0 39.6 0 60 0 C60 19.8 60 39.6 60 60 C40.2 60 20.4 60 0 60 C0 40.2 0 20.4 0 0 Z " fill="#FFFFFF" transform="translate(69,204)"/>
<path d="M0 0 C19.8 0 39.6 0 60 0 C60 19.8 60 39.6 60 60 C40.2 60 20.4 60 0 60 C0 40.2 0 20.4 0 0 Z " fill="#FFFFFF" transform="translate(270,134)"/>
<path d="M0 0 C19.8 0 39.6 0 60 0 C60 19.8 60 39.6 60 60 C40.2 60 20.4 60 0 60 C0 40.2 0 20.4 0 0 Z " fill="#FFFFFF" transform="translate(204,69)"/>
<path d="M0 0 C-0.11593506 0.69037354 -0.23187012 1.38074707 -0.35131836 2.09204102 C-0.88091553 5.24871543 -1.40921824 8.40560519 -1.9375 11.5625 C-2.11990234 12.64853516 -2.30230469 13.73457031 -2.49023438 14.85351562 C-2.66748047 15.91376953 -2.84472656 16.97402344 -3.02734375 18.06640625 C-3.18968506 19.03521729 -3.35202637 20.00402832 -3.51928711 21.00219727 C-4.46520516 26.90109403 -5.17573918 32.71727044 -5.53515625 38.68359375 C-5.57813339 39.38396255 -5.62111053 40.08433136 -5.66539001 40.80592346 C-5.80042028 43.01629711 -5.93152725 45.2268826 -6.0625 47.4375 C-6.15403627 48.94728145 -6.24583073 50.45704727 -6.33789062 51.96679688 C-6.56157662 55.64435544 -6.78174766 59.3221145 -7 63 C-7.33 63 -7.66 63 -8 63 C-9.52608417 47.7391583 -9 32.33695609 -9 17 C-50.25 17 -91.5 17 -134 17 C-134 18.32 -134 19.64 -134 21 C-134.66 21 -135.32 21 -136 21 C-136.03738281 21.72960937 -136.07476562 22.45921875 -136.11328125 23.2109375 C-136.54868009 30.12609548 -137.34216041 36.91044025 -138.4375 43.75 C-138.55971924 44.54841309 -138.68193848 45.34682617 -138.80786133 46.16943359 C-139.13425983 48.12612795 -139.55872085 50.06597272 -140 52 C-140.99 52.495 -140.99 52.495 -142 53 C-143.01054002 49.03808416 -144.00681567 45.07286415 -144.99072266 41.10424805 C-145.32645846 39.75824686 -145.66589329 38.41316216 -146.00927734 37.0690918 C-150.73022075 18.56381947 -150.73022075 18.56381947 -147.7578125 12.44140625 C-147.21898437 11.82136719 -146.68015625 11.20132813 -146.125 10.5625 C-145.59132812 9.92441406 -145.05765625 9.28632812 -144.5078125 8.62890625 C-141.15561148 5.00748702 -141.15561148 5.00748702 -138.8840332 4.89819336 C-129.85194519 5.76581388 -121.36023553 8.10454752 -112.64648438 10.56054688 C-101.81598216 13.44589303 -90.64650915 15.49968852 -80.5 9.75 C-79.3965625 9.14671875 -78.293125 8.5434375 -77.15625 7.921875 C-75.0075221 6.61349118 -72.90303904 5.23022665 -70.84375 3.78515625 C-68.14249636 2.0894517 -67.08402588 1.50117344 -64 1.6875 C-63.38125 1.71199219 -62.7625 1.73648438 -62.125 1.76171875 C-60.50755697 1.94308644 -58.89899257 2.20561162 -57.29907227 2.50439453 C-51.89488601 3.31624224 -46.46961886 3.18594552 -41.0168457 3.18530273 C-38.96739258 3.18746841 -36.91849732 3.20559956 -34.86914062 3.22460938 C-25.04380952 3.26653138 -15.32146103 2.71420187 -5.875 -0.1875 C-3 -1 -3 -1 0 0 Z " fill="#000102" transform="translate(203,52)"/>
<path d="M0 0 C-0.8013111 9.18740083 -2.16635367 18.27600099 -3.5390625 27.39257812 C-7.39891315 53.67700884 -7.64256768 78.86744644 -0.64477539 104.59521484 C1.13355978 111.22777882 1.11972754 117.55171646 1.0625 124.375 C1.05798828 125.39722656 1.05347656 126.41945313 1.04882812 127.47265625 C1.037103 129.98183194 1.02069176 132.4908849 1 135 C0.67 135 0.34 135 0 135 C-0.03440186 134.35788574 -0.06880371 133.71577148 -0.10424805 133.05419922 C-0.99164891 117.55976738 -3.18034759 103.02855238 -7 88 C-7.05534912 89.21993652 -7.11069824 90.43987305 -7.16772461 91.69677734 C-7.37561558 96.26298557 -7.58707451 100.82902302 -7.79956055 105.39501953 C-7.8906894 107.36372535 -7.98087635 109.33247502 -8.07006836 111.30126953 C-8.19912494 114.14628211 -8.33167261 116.99111489 -8.46484375 119.8359375 C-8.50343002 120.70302338 -8.5420163 121.57010925 -8.58177185 122.46347046 C-8.86101541 128.33339028 -9.36183741 134.15839904 -10 140 C-10.33 140 -10.66 140 -11 140 C-11.04632182 129.24724529 -11.08186845 118.49451428 -11.10362434 107.74168015 C-11.11406559 102.74881213 -11.12823107 97.75601234 -11.15087891 92.76318359 C-11.17259505 87.94565408 -11.18456606 83.12819022 -11.18975449 78.31061554 C-11.19345244 76.47179379 -11.20067354 74.63297566 -11.21146011 72.79418182 C-11.22595867 70.22045601 -11.22797863 67.64700221 -11.22705078 65.07324219 C-11.23424133 64.31151199 -11.24143188 63.5497818 -11.24884033 62.76496887 C-11.23389021 58.93749133 -10.92964072 56.30596348 -9 53 C-8.77126119 50.31304287 -8.63242879 47.69066259 -8.5625 45 C-8.00448428 31.18591607 -5.64264809 17.55523019 -3 4 C-3.75023437 4.20496094 -4.50046875 4.40992188 -5.2734375 4.62109375 C-6.29695312 4.89050781 -7.32046875 5.15992188 -8.375 5.4375 C-9.37273437 5.70433594 -10.37046875 5.97117187 -11.3984375 6.24609375 C-20.42423419 8.13544165 -29.47996231 8.15863301 -38.66943359 8.13037109 C-40.76016366 8.12497376 -42.85068236 8.13036694 -44.94140625 8.13671875 C-46.28906297 8.13605847 -47.63671955 8.13477834 -48.984375 8.1328125 C-50.18803711 8.13168457 -51.39169922 8.13055664 -52.63183594 8.12939453 C-55.84931209 8.00578897 -58.84027707 7.59792021 -62 7 C-69.46828939 5.82079641 -73.73801211 8.91452711 -79.75390625 12.95703125 C-88.88426676 18.70333516 -96.88477111 19.29712284 -107.57568359 17.34814453 C-111.13856565 16.49599028 -114.66159518 15.55628784 -118.1875 14.5625 C-130.39531424 10.78512748 -130.39531424 10.78512748 -143 10 C-146.2764263 12.46942475 -148.18326719 15.36653437 -150 19 C-150.62094956 27.22758166 -148.61878653 34.46431825 -146.5 42.375 C-145.84078954 44.88203593 -145.18439817 47.38981535 -144.53125 49.8984375 C-144.23798828 50.99849121 -143.94472656 52.09854492 -143.64257812 53.23193359 C-143 56 -143 56 -143 59 C-143.99 59.495 -143.99 59.495 -145 60 C-145.20681396 59.14245117 -145.41362793 58.28490234 -145.62670898 57.40136719 C-146.39627097 54.21074286 -147.16598118 51.02015437 -147.93579102 47.82958984 C-148.2685325 46.45037235 -148.60121541 45.07114073 -148.93383789 43.69189453 C-149.41276793 41.7060172 -149.89191065 39.72019128 -150.37109375 37.734375 C-150.8031311 35.94338379 -150.8031311 35.94338379 -151.24389648 34.11621094 C-151.6763561 32.33386848 -152.11631019 30.5532196 -152.57836914 28.77832031 C-154.07220969 22.47772127 -152.60664822 18.34312913 -149.34765625 13.0234375 C-146.37567435 8.56115743 -146.37567435 8.56115743 -144 7 C-137.19282657 6.52489979 -131.05160038 7.85490979 -124.4375 9.375 C-123.43525391 9.59671875 -122.43300781 9.8184375 -121.40039062 10.046875 C-117.27518702 10.97022538 -113.18225491 11.91105598 -109.13671875 13.140625 C-98.63995719 16.01645009 -87.50830239 13.62062955 -78.12109375 8.3984375 C-77.21488281 7.85445312 -76.30867188 7.31046875 -75.375 6.75 C-69.0881408 3.10637503 -63.41174877 3.1189751 -56.3984375 4.51953125 C-51.41193186 5.22451998 -46.46709395 5.14830674 -41.4375 5.125 C-39.82439941 5.11774902 -39.82439941 5.11774902 -38.17871094 5.11035156 C-27.03547065 5.02611177 -17.11568503 4.86500338 -6.55859375 0.83984375 C-4 0 -4 0 0 0 Z " fill="#0056AE" transform="translate(205,48)"/>
<path d="M0 0 C0.33 0 0.66 0 1 0 C1.02505615 1.24797363 1.0501123 2.49594727 1.07592773 3.78173828 C1.17194703 8.52707793 1.27164644 13.27233502 1.37231445 18.01757812 C1.41494481 20.0497847 1.4566496 22.08201096 1.49731445 24.11425781 C1.78447193 38.42249939 2.28419355 52.7067066 3 67 C-13.9026322 50.11651205 -13.9026322 50.11651205 -15.5234375 39.60546875 C-15.3403951 32.75663226 -11.51080733 26.45548385 -8.625 20.375 C-7.71455539 18.42363304 -6.80844393 16.47033794 -5.90487671 14.51577759 C-5.08420514 12.74579864 -4.2526189 10.98089237 -3.42041016 9.21630859 C-2.08093228 6.18325918 -0.99104132 3.16189374 0 0 Z " fill="#010203" transform="translate(61,116)"/>
<path d="M0 0 C1.32 0 2.64 0 4 0 C4 1.32 4 2.64 4 4 C37.33 4 70.66 4 105 4 C101.22280858 5.88859571 98.35566622 6.68943929 94.25 7.5 C93.07953125 7.7371875 91.9090625 7.974375 90.703125 8.21875 C78.37875181 10.37505059 66.31796305 11.34162508 53.8125 11.25 C53.09186371 11.2478952 52.37122742 11.24579041 51.62875366 11.24362183 C34.44869328 11.18543704 16.98184512 10.72790855 0 8 C0 5.36 0 2.72 0 0 Z " fill="#000102" transform="translate(65,190)"/>
<path d="M0 0 C0 3.96 0 7.92 0 12 C-21.45 12 -42.9 12 -65 12 C-65 10.68 -65 9.36 -65 8 C-64.2678125 8.05800781 -63.535625 8.11601562 -62.78125 8.17578125 C-49.17706567 8.74262226 -35.86535864 5.39233541 -22.79296875 1.875 C-18.70987532 0.93307114 -14.85862412 0.56405945 -10.6875 0.375 C-9.98560547 0.33632812 -9.28371094 0.29765625 -8.56054688 0.2578125 C-5.70348364 0.10529053 -2.86147021 0 0 0 Z " fill="#0158B3" transform="translate(164,152)"/>
<path d="M0 0 C0.33 0 0.66 0 1 0 C1 36.96 1 73.92 1 112 C0.01 112 -0.98 112 -2 112 C-3.96408407 96.28498229 -4.49512561 80.59193491 -4.74291992 64.77099609 C-4.79797624 61.301834 -4.87567349 57.8335707 -4.95886707 54.36498451 C-5.03550667 50.9857407 -5.08850759 47.60621019 -5.14453125 44.2265625 C-5.17561478 43.00538727 -5.2066983 41.78421204 -5.23872375 40.52603149 C-5.32641632 33.05080871 -4.47509686 26.30832213 -2.72250366 19.03765869 C-1.78356301 15.090023 -1.25072222 11.15342813 -0.8125 7.125 C-0.73064453 6.42503906 -0.64878906 5.72507812 -0.56445312 5.00390625 C-0.37031746 3.33662346 -0.1841754 1.66841242 0 0 Z " fill="#000102" transform="translate(68,77)"/>
<path d="M0 0 C1.59749925 2.93347412 2.51641451 5.66839828 3.25390625 8.921875 C3.57584961 10.33726562 3.57584961 10.33726562 3.90429688 11.78125 C4.12150391 12.7609375 4.33871094 13.740625 4.5625 14.75 C4.78357422 15.71421875 5.00464844 16.6784375 5.23242188 17.671875 C7.45008477 27.53410999 8.16010721 36.71917686 8.125 46.8125 C8.12886719 47.94365234 8.13273438 49.07480469 8.13671875 50.24023438 C8.13542969 51.32240234 8.13414062 52.40457031 8.1328125 53.51953125 C8.13168457 54.50026611 8.13055664 55.48100098 8.12939453 56.49145508 C8 59 8 59 7 62 C3.7 62 0.4 62 -3 62 C-2.73380647 56.38475008 -2.46726666 50.76951672 -2.20043945 45.15429688 C-2.11018069 43.2539105 -2.02000798 41.35352003 -1.92993164 39.453125 C-1.30646241 26.30105891 -0.66393818 13.1500864 0 0 Z " fill="#000102" transform="translate(197,132)"/>
<path d="M0 0 C5.96798323 0.99847484 12.02155054 1.20212679 18.05859375 1.51171875 C18.05859375 1.84171875 18.05859375 2.17171875 18.05859375 2.51171875 C14.35027712 2.54090749 10.64199033 2.55858093 6.93359375 2.57421875 C5.886875 2.58259766 4.84015625 2.59097656 3.76171875 2.59960938 C-1.2576811 2.61549355 -6.00974421 2.56794873 -10.94140625 1.51171875 C-18.40969564 0.33251516 -22.67941836 3.42624586 -28.6953125 7.46875 C-37.82567301 13.21505391 -45.82617736 13.80884159 -56.51708984 11.85986328 C-60.0799719 11.00770903 -63.60300143 10.06800659 -67.12890625 9.07421875 C-79.33672049 5.29684623 -79.33672049 5.29684623 -91.94140625 4.51171875 C-95.21783255 6.9811435 -97.12467344 9.87825312 -98.94140625 13.51171875 C-99.56235581 21.73930041 -97.56019278 28.976037 -95.44140625 36.88671875 C-94.78219579 39.39375468 -94.12580442 41.9015341 -93.47265625 44.41015625 C-93.17939453 45.51020996 -92.88613281 46.61026367 -92.58398438 47.74365234 C-91.94140625 50.51171875 -91.94140625 50.51171875 -91.94140625 53.51171875 C-92.93140625 54.00671875 -92.93140625 54.00671875 -93.94140625 54.51171875 C-94.14822021 53.65416992 -94.35503418 52.79662109 -94.56811523 51.91308594 C-95.33767722 48.72246161 -96.10738743 45.53187312 -96.87719727 42.34130859 C-97.20993875 40.9620911 -97.54262166 39.58285948 -97.87524414 38.20361328 C-98.35417418 36.21773595 -98.8333169 34.23191003 -99.3125 32.24609375 C-99.74453735 30.45510254 -99.74453735 30.45510254 -100.18530273 28.62792969 C-100.61776235 26.84558723 -101.05771644 25.06493835 -101.51977539 23.29003906 C-103.01361594 16.98944002 -101.54805447 12.85484788 -98.2890625 7.53515625 C-95.3170806 3.07287618 -95.3170806 3.07287618 -92.94140625 1.51171875 C-86.13423282 1.03661854 -79.99300663 2.36662854 -73.37890625 3.88671875 C-72.37666016 4.1084375 -71.37441406 4.33015625 -70.34179688 4.55859375 C-66.21659327 5.48194413 -62.12366116 6.42277473 -58.078125 7.65234375 C-47.58136344 10.52816884 -36.44970864 8.1323483 -27.0625 2.91015625 C-26.15628906 2.36617187 -25.25007813 1.8221875 -24.31640625 1.26171875 C-16.2555423 -3.36451621 -8.73666396 -1.78790946 0 0 Z " fill="#0058B3" transform="translate(153.94140625,53.48828125)"/>
<path d="M0 0 C1.98 0.99 1.98 0.99 4 2 C4 6.62 4 11.24 4 16 C5.42570312 16.06058594 6.85140625 16.12117188 8.3203125 16.18359375 C10.25521275 16.26812823 12.19010833 16.35276945 14.125 16.4375 C15.05699219 16.47681641 15.98898438 16.51613281 16.94921875 16.55664062 C22.21309072 16.78939687 27.45808149 17.10538392 32.7109375 17.51953125 C40.64177269 18.09844417 48.5523675 18.24138789 56.5 18.25 C57.60835709 18.25200912 57.60835709 18.25200912 58.73910522 18.25405884 C74.90776707 18.2477427 90.25555896 16.55347044 105.94921875 12.5625 C111.59532965 11.52147571 117.28389212 11.76861332 123 12 C123 12.33 123 12.66 123 13 C118.5943652 13.82392502 114.18759473 14.6414239 109.77978516 15.45361328 C108.28826694 15.72929977 106.79704216 16.00657969 105.30615234 16.28564453 C90.44581133 19.0650601 75.7974223 21.37377157 60.625 21.25 C59.41618164 21.24540771 58.20736328 21.24081543 56.96191406 21.23608398 C41.61964653 21.08897436 26.29708357 20.14360616 11 19 C9.56043945 18.90887939 9.56043945 18.90887939 8.09179688 18.81591797 C5.640625 18.62109375 5.640625 18.62109375 2 18 C-0.45391569 14.31912647 -0.22802759 11.55644412 -0.125 7.3125 C-0.11597656 6.61060547 -0.10695312 5.90871094 -0.09765625 5.18554688 C-0.07413704 3.45688475 -0.03826713 1.72839855 0 0 Z " fill="#547EA8" transform="translate(61,182)"/>
<path d="M0 0 C1.2890625 0.00322266 2.578125 0.00644531 3.90625 0.00976562 C5.25260486 0.01811892 6.59895902 0.02658384 7.9453125 0.03515625 C9.31510254 0.04017795 10.68489435 0.04473968 12.0546875 0.04882812 C15.3932744 0.06058371 18.73177065 0.07701661 22.0703125 0.09765625 C18.89915432 2.56151971 15.92708291 4.14560821 12.1953125 5.66015625 C10.68324219 6.28083984 10.68324219 6.28083984 9.140625 6.9140625 C7.62082031 7.49994141 7.62082031 7.49994141 6.0703125 8.09765625 C5.09578125 8.47535156 4.12125 8.85304688 3.1171875 9.2421875 C-0.32369609 10.20828174 -3.23795475 10.29544671 -6.8046875 10.22265625 C-7.95710938 10.20460938 -9.10953125 10.1865625 -10.296875 10.16796875 C-11.16570312 10.14476563 -12.03453125 10.1215625 -12.9296875 10.09765625 C-12.9296875 7.12765625 -12.9296875 4.15765625 -12.9296875 1.09765625 C-8.56075013 0.25702849 -4.4461677 -0.01967331 0 0 Z " fill="#010307" transform="translate(111.9296875,98.90234375)"/>
<path d="M0 0 C6.40793406 12.81586811 3.07588353 32.50484787 2.5625 46.5 C2.52334473 47.58547119 2.48418945 48.67094238 2.44384766 49.78930664 C2.18591916 56.22417788 1.72837663 62.60101018 1 69 C0.67 69 0.34 69 0 69 C0 46.23 0 23.46 0 0 Z " fill="#004287" transform="translate(194,119)"/>
<path d="M0 0 C-3.45706743 2.30471162 -6.93900164 3.32983833 -10.875 4.5 C-12.28964042 4.92516515 -13.70371803 5.35220806 -15.1171875 5.78125 C-15.74222168 5.96751953 -16.36725586 6.15378906 -17.01123047 6.34570312 C-19.09467268 6.99377227 -19.09467268 6.99377227 -21.3840332 8.06396484 C-24.33948634 9.12147369 -26.60647703 9.22880773 -29.73828125 9.1953125 C-31.33833008 9.18564453 -31.33833008 9.18564453 -32.97070312 9.17578125 C-34.62489258 9.15064453 -34.62489258 9.15064453 -36.3125 9.125 C-37.43462891 9.11597656 -38.55675781 9.10695312 -39.71289062 9.09765625 C-42.47547909 9.07414486 -45.23762932 9.04128155 -48 9 C-45.01437382 7.00958255 -43.60741404 6.58790696 -40.16796875 6.03515625 C-38.73239624 5.79684082 -38.73239624 5.79684082 -37.26782227 5.55371094 C-35.74306274 5.31056152 -35.74306274 5.31056152 -34.1875 5.0625 C-27.43361488 3.9474396 -20.73445967 2.78353321 -14.0625 1.25 C-9.22501666 0.16523101 -4.94549989 -0.29672999 0 0 Z " fill="#02060B" transform="translate(154,155)"/>
<path d="M0 0 C0 2.97 0 5.94 0 9 C-8.25 9 -16.5 9 -25 9 C-22.36041882 7.24027922 -20.35251231 6.30410254 -17.40234375 5.2734375 C-16.07686523 4.809375 -16.07686523 4.809375 -14.72460938 4.3359375 C-13.80486328 4.01882812 -12.88511719 3.70171875 -11.9375 3.375 C-10.55208008 2.88773438 -10.55208008 2.88773438 -9.13867188 2.390625 C-2.26311384 0 -2.26311384 0 0 0 Z " fill="#010304" transform="translate(164,155)"/>
<path d="M0 0 C0.33 0 0.66 0 1 0 C1.20302734 1.76923828 1.20302734 1.76923828 1.41015625 3.57421875 C3.2491658 18.3563385 6.59945883 32.5768568 10.29150391 46.98999023 C11.43240746 51.83706119 12.12696382 56.41615081 12.09765625 61.3984375 C12.09443359 62.37167969 12.09121094 63.34492188 12.08789062 64.34765625 C12.07951172 65.34667969 12.07113281 66.34570312 12.0625 67.375 C12.05798828 68.39722656 12.05347656 69.41945313 12.04882812 70.47265625 C12.037103 72.98183194 12.02069176 75.4908849 12 78 C11.67 78 11.34 78 11 78 C10.96559814 77.35788574 10.93119629 76.71577148 10.89575195 76.05419922 C10.20799573 64.04565574 9.19963513 52.30527215 6.5 40.5625 C6.28641846 39.62841309 6.07283691 38.69432617 5.8527832 37.73193359 C4.82457698 32.89378582 4.82457698 32.89378582 2 29 C-0.03418002 19.40670657 -0.27096015 9.76961857 0 0 Z " fill="#4B7BAD" transform="translate(194,105)"/>
<path d="M0 0 C1.98 0.99 1.98 0.99 4 2 C4 6.62 4 11.24 4 16 C11.26 16.33 18.52 16.66 26 17 C26 17.33 26 17.66 26 18 C20.62407133 18.93989746 15.62878331 19.06146982 10.1875 18.75 C9.42501953 18.72292969 8.66253906 18.69585937 7.87695312 18.66796875 C5.66796875 18.546875 5.66796875 18.546875 2 18 C-0.45391569 14.31912647 -0.22802759 11.55644412 -0.125 7.3125 C-0.11597656 6.61060547 -0.10695312 5.90871094 -0.09765625 5.18554688 C-0.07413704 3.45688475 -0.03826713 1.72839855 0 0 Z " fill="#486E94" transform="translate(61,182)"/>
<path d="M0 0 C0.99 0 1.98 0 3 0 C3 0.99 3 1.98 3 3 C-0.97032005 4.52417051 -4.95245298 6.0148062 -8.9375 7.5 C-10.05447266 7.92925781 -11.17144531 8.35851562 -12.32226562 8.80078125 C-18.85905613 11.21613493 -24.02922436 12.53223313 -31 12 C-23.04986965 7.99489916 -14.77948695 5.21380997 -6.27050781 2.6628418 C-2.86154371 1.84282844 -2.86154371 1.84282844 0 0 Z " fill="#4D739A" transform="translate(161,152)"/>
<path d="M0 0 C0 0.33 0 0.66 0 1 C-4.47857658 1.84387352 -8.95856527 2.67966669 -13.43994141 3.50854492 C-14.95889232 3.79059911 -16.47746126 4.07471954 -17.99560547 4.36108398 C-43.69000126 9.20316319 -43.69000126 9.20316319 -49 6 C-48.10244995 5.88724731 -48.10244995 5.88724731 -47.18676758 5.7722168 C-33.48790916 4.12855495 -33.48790916 4.12855495 -20 1.3125 C-13.33398517 -0.38269847 -6.83798316 -0.27679992 0 0 Z " fill="#4E759C" transform="translate(184,194)"/>
<path d="M0 0 C-3.09764322 2.54184599 -6.16919843 4.05849147 -9.875 5.5625 C-11.38707031 6.18318359 -11.38707031 6.18318359 -12.9296875 6.81640625 C-14.44949219 7.40228516 -14.44949219 7.40228516 -16 8 C-16.97453125 8.37769531 -17.9490625 8.75539063 -18.953125 9.14453125 C-22.39400859 10.11062549 -25.30826725 10.19779046 -28.875 10.125 C-30.02742188 10.10695313 -31.17984375 10.08890625 -32.3671875 10.0703125 C-33.23601562 10.04710938 -34.10484375 10.02390625 -35 10 C-35 9.01 -35 8.02 -35 7 C-33.63681641 6.99613281 -33.63681641 6.99613281 -32.24609375 6.9921875 C-23.2226516 6.71454313 -16.45304184 5.02961589 -8.2421875 1.27734375 C-5.16917093 0.06664927 -3.24950606 -0.28816374 0 0 Z " fill="#005AB7" transform="translate(134,99)"/>
<path d="M0 0 C5.69784341 1.20099039 11.35065378 2.59094033 17 4 C17 4.66 17 5.32 17 6 C11.4807479 6.225424 6.77149902 5.43274508 1.4375 4.0625 C-3.36175208 2.86162614 -8.10073669 1.73527648 -13 1 C-8.53753045 -1.9749797 -5.15011918 -0.88517673 0 0 Z " fill="#0058B3" transform="translate(75,56)"/>
<path d="M0 0 C6.55511434 -0.22822448 12.52176452 0.17453744 18.94140625 1.48828125 C24.90938948 2.48675609 30.96295679 2.69040804 37 3 C37 3.33 37 3.66 37 4 C24.49790204 4.21003783 12.3244872 4.39227481 0 2 C0 1.34 0 0.68 0 0 Z " fill="#0061C3" transform="translate(135,52)"/>
<path d="M0 0 C1.32 0 2.64 0 4 0 C4 6.27 4 12.54 4 19 C2 18 2 18 0.875 15.6875 C-0.36756666 10.45096906 -0.15601296 5.35644496 0 0 Z " fill="#2166B2" transform="translate(160,99)"/>
<path d="M0 0 C-11.1409379 0.82950855 -21.86694656 1.06732813 -33 0 C-33 -0.33 -33 -0.66 -33 -1 C-4.02240229 -2.68160153 -4.02240229 -2.68160153 0 0 Z " fill="#00458E" transform="translate(190,55)"/>
<path d="M0 0 C6.93 0 13.86 0 21 0 C14.32055232 3.33972384 7.42117846 4.32265993 0 4 C0 2.68 0 1.36 0 0 Z " fill="#005DBC" transform="translate(99,160)"/>
<path d="M0 0 C0.33 0 0.66 0 1 0 C1.125 7.625 1.125 7.625 0 11 C-3.3 11 -6.6 11 -10 11 C-10 10.01 -10 9.02 -10 8 C-7.03 8 -4.06 8 -1 8 C-0.67 5.36 -0.34 2.72 0 0 Z " fill="#4C7299" transform="translate(204,183)"/>
<path d="M0 0 C0.99 0.33 1.98 0.66 3 1 C4.89212737 1.22179785 6.78884472 1.40614015 8.6875 1.5625 C9.68136719 1.64628906 10.67523438 1.73007812 11.69921875 1.81640625 C12.83810547 1.90728516 12.83810547 1.90728516 14 2 C14 2.33 14 2.66 14 3 C11.31222198 3.0544207 8.62556788 3.09387266 5.9375 3.125 C5.18533203 3.14175781 4.43316406 3.15851563 3.65820312 3.17578125 C-1.29327709 3.21865121 -5.30414451 2.58399375 -10 1 C-6.1184112 -1.58772586 -4.46573523 -0.87719799 0 0 Z " fill="#0060C2" transform="translate(99,62)"/>
<path d="M0 0 C0.33 0 0.66 0 1 0 C0.85856168 2.7294586 0.71200471 5.45848123 0.5625 8.1875 C0.52318359 8.95642578 0.48386719 9.72535156 0.44335938 10.51757812 C0.22492966 14.43251075 -0.08692108 18.17120688 -1 22 C-1.33 22 -1.66 22 -2 22 C-2.05454409 19.64551325 -2.0939279 17.29232125 -2.125 14.9375 C-2.14820313 13.62652344 -2.17140625 12.31554687 -2.1953125 10.96484375 C-1.99417522 6.88175701 -1.27165462 3.85000947 0 0 Z " fill="#0061C3" transform="translate(200,69)"/>
<path d="M0 0 C0 0.99 0 1.98 0 3 C-8.42857143 6.42857143 -8.42857143 6.42857143 -13 6 C-13 5.34 -13 4.68 -13 4 C-11.39850114 3.32694982 -9.79368971 2.66177773 -8.1875 2 C-7.29417969 1.62875 -6.40085938 1.2575 -5.48046875 0.875 C-3 0 -3 0 0 0 Z " fill="#5985B0" transform="translate(164,152)"/>
<path d="M0 0 C0.88171875 0.10828125 1.7634375 0.2165625 2.671875 0.328125 C5.17890778 0.69539732 7.65678163 1.11158238 10.125 1.6875 C6.85160644 3.86976237 6.45898617 3.897726 2.8125 3.375 C2.02359375 3.26671875 1.2346875 3.1584375 0.421875 3.046875 C-5.21590909 2.16477273 -5.21590909 2.16477273 -7.875 1.6875 C-4.48985094 -0.56926604 -3.85122233 -0.48579248 0 0 Z " fill="#0050A3" transform="translate(69.875,55.3125)"/>
<path d="M0 0 C-2.92085393 1.94723595 -4.59332678 2.55175352 -8 3 C-8.33 2.67 -8.66 2.34 -9 2 C-10.32594105 1.63837971 -11.65938457 1.30271961 -13 1 C-8.23947038 -0.97387813 -5.03511899 -1.0070238 0 0 Z " fill="#496D92" transform="translate(154,158)"/>
<path d="M0 0 C2.02045442 0.60183749 4.02111039 1.27306096 6 2 C6.33 2.66 6.66 3.32 7 4 C4.69 4 2.38 4 0 4 C0 2.68 0 1.36 0 0 Z " fill="#3268A4" transform="translate(99,160)"/>
<path d="M0 0 C-4.625 3 -4.625 3 -8 3 C-7.67 2.01 -7.34 1.02 -7 0 C-2.25 -1.125 -2.25 -1.125 0 0 Z " fill="#5984B0" transform="translate(147,160)"/>
<path d="M0 0 C0 0.99 0 1.98 0 3 C-2.60582371 3.93065133 -3.64198224 4.14917407 -6.25 3.0625 C-6.8275 2.711875 -7.405 2.36125 -8 2 C-5.09399739 0.74335022 -3.20395416 0 0 0 Z " fill="#3C77C2" transform="translate(164,152)"/>
</svg>
